<?xml version="1.0" standalone="no"?>
<!DOCTYPE svg PUBLIC "-//W3C//DTD SVG 20010904//EN"
 "http://www.w3.org/TR/2001/REC-SVG-20010904/DTD/svg10.dtd">
<svg version="1.0" xmlns="http://www.w3.org/2000/svg"
 width="360.000000pt" height="539.000000pt" viewBox="0 0 360.000000 539.000000"
 preserveAspectRatio="xMidYMid meet">

<g transform="translate(0.000000,539.000000) scale(0.100000,-0.100000)"
fill="#000000" stroke="none">
<path d="M2185 4048 c-49 -11 -367 -75 -705 -144 -450 -91 -620 -129 -633
-142 -16 -16 -16 -36 -7 -297 5 -154 12 -379 14 -500 3 -121 9 -236 15 -255 6
-19 11 -46 10 -60 -1 -15 -5 -7 -10 20 -24 120 -128 161 -281 111 -60 -19
-424 -115 -535 -141 -40 -9 -53 -16 -53 -30 0 -17 3 -17 47 -4 114 35 370 94
407 94 46 0 97 -27 121 -64 28 -42 41 -148 26 -204 -21 -81 -72 -119 -226
-173 -140 -48 -64 -31 131 30 104 33 190 58 192 57 10 -11 -393 -137 -585
-184 -69 -16 -113 -32 -113 -39 0 -7 6 -13 14 -13 27 0 431 119 586 172 l155
53 1 -79 c1 -66 4 -81 21 -95 11 -9 23 -34 26 -55 4 -23 18 -51 33 -67 44 -46
81 -47 208 -4 129 44 150 56 164 93 32 85 14 132 -59 153 -35 11 -38 14 -25
28 8 9 18 29 21 44 7 28 9 26 140 -102 73 -72 145 -135 160 -141 21 -8 42 -6
86 6 33 9 58 19 55 21 -2 2 -28 -3 -56 -11 -29 -9 -63 -13 -76 -10 -14 4 -45
35 -73 73 -39 52 -48 72 -44 94 3 15 9 27 14 27 5 0 9 7 9 16 0 14 9 16 52 12
51 -5 95 6 110 27 4 5 4 21 1 34 -4 17 -2 22 6 17 6 -4 11 -1 11 8 0 18 16 22
22 5 5 -15 58 0 58 16 0 8 -4 17 -10 20 -5 3 -10 18 -10 32 0 15 3 23 7 20 3
-4 12 -2 18 3 7 6 39 17 71 25 117 30 399 119 402 127 2 4 7 6 12 3 4 -3 27 2
51 11 24 8 51 17 60 19 9 2 49 13 90 26 41 12 79 23 84 25 29 6 156 47 153 49
-4 4 -81 60 -197 145 -49 35 -88 66 -86 68 3 3 44 -24 175 -117 114 -81 118
-83 135 -74 13 8 -10 27 -112 98 -70 49 -145 102 -165 118 -20 16 -41 26 -47
22 -6 -3 -11 -1 -11 4 0 6 -10 11 -22 12 -23 0 -23 0 -2 9 15 6 23 20 27 47
14 90 67 891 60 909 -8 21 -24 21 -118 2z m60 -1008 c3 -5 -3 -10 -15 -10 -22
0 -673 -176 -886 -239 -38 -11 -130 -36 -204 -56 -74 -20 -144 -38 -155 -41
-14 -4 -17 -3 -10 4 6 6 134 44 285 86 151 41 428 118 615 170 187 52 345 95
352 95 6 1 15 -3 18 -9z m-1435 -280 c0 -5 -4 -10 -10 -10 -5 0 -10 5 -10 10
0 6 5 10 10 10 6 0 10 -4 10 -10z m997 -116 c-3 -3 -12 -4 -19 -1 -8 3 -5 6 6
6 11 1 17 -2 13 -5z m-815 -199 c-42 -12 -87 -25 -99 -29 -21 -7 -22 -5 -16
31 l6 38 -25 -35 c-22 -32 -119 -100 -143 -100 -5 0 10 12 35 26 59 34 99 72
116 111 10 24 18 30 34 26 23 -6 26 -23 8 -42 -11 -11 -10 -13 2 -9 11 3 16
23 18 73 l3 68 69 -68 70 -69 -78 -21z m364 -88 c4 -4 0 -7 -8 -7 -11 0 -14
-6 -11 -20 4 -16 0 -20 -17 -20 -22 0 -80 35 -80 48 0 10 107 8 116 -1z"/>
<path d="M2620 3252 c-146 -42 -271 -81 -278 -85 -13 -9 -16 -56 -4 -72 9 -13
121 -93 357 -255 99 -68 210 -145 246 -171 72 -53 86 -56 148 -34 41 14 43 14
64 -10 54 -61 81 -85 147 -131 49 -33 73 -45 81 -37 7 7 -5 20 -39 42 -51 32
-162 142 -162 159 0 6 93 41 208 79 170 56 208 72 211 88 3 20 3 20 -18 1 -22
-20 -22 -20 -28 2 -3 12 -8 22 -12 22 -14 0 -29 -16 -32 -35 -3 -15 -38 -30
-179 -76 -123 -40 -180 -54 -192 -48 -9 5 -24 9 -34 9 -13 0 -14 -3 -4 -15 10
-12 8 -16 -11 -23 -62 -23 -69 -24 -69 -5 0 10 4 23 8 29 4 6 133 54 287 107
232 78 280 98 280 113 0 20 -22 34 -441 282 -122 72 -232 133 -245 136 -14 3
-139 -28 -289 -72z"/>
<path d="M350 3016 c-86 -30 -126 -52 -142 -75 -17 -24 -151 -91 -183 -91 -23
0 -25 -4 -25 -46 0 -38 3 -45 18 -40 76 22 521 131 577 141 38 7 62 14 53 14
-10 1 -22 10 -28 21 -15 28 -50 46 -60 30 -9 -15 -50 -4 -50 14 0 23 -40 56
-68 56 -15 -1 -56 -11 -92 -24z"/>
<path d="M2175 2650 c-17 -19 -18 -22 -2 -37 20 -20 23 -18 32 25 8 37 -4 41
-30 12z"/>
<path d="M2615 2480 c-143 -49 -256 -89 -250 -89 15 -1 499 160 510 170 12 12
30 18 -260 -81z"/>
<path d="M2880 2475 c-52 -20 -216 -79 -365 -132 -148 -52 -276 -100 -282
-105 -23 -19 -14 -53 25 -89 40 -38 195 -169 630 -533 252 -211 276 -229 318
-234 41 -4 64 3 219 73 l174 78 0 291 1 291 -58 41 c-432 306 -493 346 -529
350 -27 3 -67 -7 -133 -31z m650 -955 c-8 -5 -19 -10 -25 -10 -5 0 -3 5 5 10
8 5 20 10 25 10 6 0 3 -5 -5 -10z m-60 -25 c-14 -8 -29 -14 -35 -14 -5 0 1 6
15 14 14 8 30 14 35 14 6 0 -1 -6 -15 -14z m-145 -65 c-3 -5 -12 -10 -18 -10
-7 0 -6 4 3 10 19 12 23 12 15 0z m-102 -27 c-7 -2 -21 -2 -30 0 -10 3 -4 5
12 5 17 0 24 -2 18 -5z"/>
<path d="M2240 2355 c-19 -7 -28 -14 -20 -14 8 0 29 6 45 14 39 17 21 18 -25
0z"/>
<path d="M1968 2263 c7 -3 16 -2 19 1 4 3 -2 6 -13 5 -11 0 -14 -3 -6 -6z"/>
<path d="M1870 2235 c-36 -13 -60 -24 -54 -24 13 -1 134 39 134 45 0 7 -12 4
-80 -21z"/>
<path d="M1758 2108 l-328 -110 0 -31 c0 -26 19 -49 123 -153 l122 -123 339
123 c186 68 342 129 347 137 5 8 8 23 7 34 -3 23 -245 235 -268 234 -8 0 -162
-50 -342 -111z"/>
<path d="M1610 2150 c-18 -12 -2 -12 25 0 13 6 15 9 5 9 -8 0 -22 -4 -30 -9z"/>
<path d="M2115 1794 c-176 -64 -332 -120 -348 -126 -29 -11 -47 -35 -47 -64 0
-9 50 -68 112 -131 101 -102 115 -113 147 -113 36 1 117 30 491 179 260 103
254 100 258 137 2 25 -5 36 -50 75 -169 144 -189 159 -216 159 -15 0 -171 -53
-347 -116z"/>
<path d="M1235 1870 c-27 -10 -240 -83 -473 -163 -233 -80 -426 -148 -429
-150 -3 -3 71 -113 164 -244 93 -131 245 -345 337 -475 92 -131 171 -238 176
-238 4 0 135 53 291 119 156 65 394 165 529 221 135 56 249 106 254 110 5 5
-114 140 -265 302 -151 161 -325 348 -388 416 -62 67 -121 122 -130 121 -9 0
-38 -9 -66 -19z"/>
<path d="M2565 1494 c-54 -21 -114 -41 -148 -49 -39 -8 -104 -70 -118 -112
-16 -49 -6 -128 20 -164 13 -17 24 -49 26 -74 5 -62 20 -85 55 -85 16 0 35 7
44 15 12 12 20 13 43 4 87 -34 293 20 369 97 23 22 47 58 54 80 7 21 20 46 30
55 9 9 23 31 30 49 13 31 12 34 -9 51 -13 11 -34 19 -47 19 -26 0 -56 41 -35
48 6 2 9 8 5 13 -8 14 6 10 22 -6 16 -16 34 -20 34 -7 0 4 -9 18 -20 32 -17
21 -21 23 -30 10 -6 -9 -13 -11 -17 -5 -19 24 -57 33 -159 39 -88 5 -117 3
-149 -10z m106 -96 c19 -6 68 -11 109 -12 85 -1 82 3 62 -96 -14 -69 -30 -102
-70 -144 -63 -65 -127 -80 -243 -55 -47 10 -53 15 -66 49 -10 24 -24 41 -37
44 -12 3 -29 21 -38 40 -16 33 -16 36 8 85 14 28 42 65 62 82 36 30 39 30 108
25 39 -4 86 -12 105 -18z m-329 -143 c-9 -40 -9 -40 -17 -12 -5 18 -2 45 6 70
13 41 13 41 17 12 1 -16 -1 -48 -6 -70z m118 -184 c0 -8 -64 -41 -80 -41 -22
0 -7 21 28 39 35 18 52 19 52 2z"/>
<path d="M2910 1398 c0 -4 6 -8 14 -8 8 0 17 4 20 8 2 4 -4 8 -15 8 -10 0 -19
-4 -19 -8z"/>
</g>
</svg>
