<?xml version="1.0" standalone="no"?>
<!DOCTYPE svg PUBLIC "-//W3C//DTD SVG 20010904//EN"
 "http://www.w3.org/TR/2001/REC-SVG-20010904/DTD/svg10.dtd">
<svg version="1.0" xmlns="http://www.w3.org/2000/svg"
 width="740.000000pt" height="555.000000pt" viewBox="0 0 740.000000 555.000000"
 preserveAspectRatio="xMidYMid meet">

<g transform="translate(0.000000,555.000000) scale(0.100000,-0.100000)"
fill="#000000" stroke="none">
<path d="M0 3335 l0 -2214 213 -5 c116 -2 275 -11 352 -19 77 -8 208 -18 290
-21 83 -4 231 -11 330 -16 99 -6 405 -15 680 -20 456 -10 1224 -30 2295 -61
l405 -12 145 27 c188 34 322 54 438 66 56 5 101 15 110 23 56 49 332 61 1297
54 446 -2 818 -8 828 -12 16 -7 17 102 17 2209 l0 2216 -3700 0 -3700 0 0
-2215z m5701 1198 c13 -16 12 -17 -3 -4 -10 7 -18 15 -18 17 0 8 8 3 21 -13z
m-2386 -903 c15 -38 29 -70 30 -70 0 0 23 29 49 65 39 53 53 65 75 65 15 0 30
-2 33 -5 2 -3 -5 -69 -16 -147 l-21 -143 -32 -3 c-38 -4 -39 1 -22 92 6 32 9
60 6 62 -2 2 -19 -18 -38 -46 -44 -64 -62 -64 -85 -1 -10 28 -21 48 -25 45 -4
-2 -11 -33 -14 -69 l-7 -65 -35 0 c-34 0 -35 1 -30 33 4 17 14 83 23 145 l17
112 32 0 c30 0 33 -4 60 -70z m423 36 c89 -49 80 -209 -16 -268 -124 -77 -254
65 -179 197 42 74 131 107 195 71z m303 -12 c27 -14 30 -19 23 -47 -8 -41 -6
-40 -42 -22 -37 19 -72 12 -103 -21 -28 -30 -31 -85 -4 -114 20 -22 73 -27
106 -10 15 9 19 7 19 -7 0 -44 -13 -63 -48 -73 -49 -13 -104 3 -135 39 -102
122 46 327 184 255z m133 -46 l-6 -53 49 48 c45 43 53 47 98 47 l49 0 -66 -67
-67 -68 40 -83 c43 -91 47 -107 23 -98 -9 3 -26 6 -38 6 -17 0 -29 13 -51 60
-33 69 -50 67 -61 -6 -6 -42 -8 -44 -40 -44 -29 0 -34 4 -34 23 0 25 30 255
36 275 2 6 19 12 39 12 l36 0 -7 -52z m283 28 c1 -1 -4 -44 -12 -96 -16 -109
-13 -136 20 -144 52 -13 66 12 85 147 5 43 10 83 10 88 0 11 67 12 74 1 7 -11
-21 -200 -35 -234 -18 -45 -54 -70 -107 -76 -54 -5 -104 15 -122 47 -13 25
-13 107 0 191 15 93 15 93 52 85 18 -4 34 -8 35 -9z m414 -43 c25 -24 32 -40
32 -70 0 -75 -54 -123 -137 -123 l-45 0 -7 -45 c-6 -44 -7 -45 -45 -45 -25 0
-39 5 -39 13 0 6 9 75 20 152 11 77 20 143 20 148 0 5 38 7 85 6 80 -4 87 -6
116 -36z m-1258 -1205 c130 -18 237 -36 237 -40 0 -5 -6 -8 -12 -8 -11 0 -166
21 -263 35 -228 34 -282 45 -222 45 12 0 129 -14 260 -32z m352 -58 c3 -5 -3
-10 -14 -10 -11 0 -23 5 -26 10 -3 6 3 10 14 10 11 0 23 -4 26 -10z m65 -10
c0 -5 -9 -10 -19 -10 -11 0 -23 5 -26 10 -4 6 5 10 19 10 14 0 26 -4 26 -10z
m97 -16 c-3 -3 -12 -4 -19 -1 -8 3 -5 6 6 6 11 1 17 -2 13 -5z m213 -24 c0 -5
-4 -10 -10 -10 -5 0 -10 5 -10 10 0 6 5 10 10 10 6 0 10 -4 10 -10z m150 -20
c12 -8 11 -10 -7 -10 -12 0 -25 5 -28 10 -8 13 15 13 35 0z m130 -20 c0 -5 -4
-10 -10 -10 -5 0 -10 5 -10 10 0 6 5 10 10 10 6 0 10 -4 10 -10z m170 -26 c0
-2 -9 -4 -20 -4 -11 0 -20 4 -20 9 0 5 9 7 20 4 11 -3 20 -7 20 -9z"/>
<path d="M3615 3585 c-31 -30 -34 -93 -7 -118 49 -45 122 -1 122 73 0 68 -67
94 -115 45z"/>
<path d="M4736 3519 c-9 -48 -9 -49 28 -49 39 0 59 19 54 52 -2 18 -10 24 -39
26 -34 3 -37 1 -43 -29z"/>
</g>
</svg>
